<?xml version="1.0" encoding="UTF-8"?>
<svg xmlns="http://www.w3.org/2000/svg" viewBox="0 0 651.37 159.67">
  <path d="m62.6,118.41H0V17.28h62.6v101.13Zm-44.26-15.52h25.83V32.71h-25.83v70.18Zm70.97-28.39h-36.41v-15.78h36.41v15.78Zm10.49,77.23h-18.6V2.73h18.6v149Zm32.8,7.49h-18.87V0h18.87v159.23Z" fill="black"/>
  <path d="m201.46,54.31c-3.53,9.29-8.68,17.43-15.47,24.42-6.79,7-14.94,12.23-24.47,15.69l-10.32-15.34c8.4-3,15.56-7.3,21.47-12.92,5.91-5.61,10.33-12.02,13.27-19.22,2.94-7.2,4.41-14.65,4.41-22.35v-15.61h16.4v15.61c0,10.52-1.76,20.43-5.29,29.71Zm-3.35,94.34h-19.75v-43.11h19.75v43.11Zm90.19,7.76h-109.94v-16.05h109.94v16.05Zm-73.35-110.43c2.88,6.79,7.21,12.81,13,18.07,5.79,5.26,12.77,9.27,20.94,12.03l-10.14,15.61c-9.46-3.35-17.52-8.32-24.16-14.9-6.64-6.58-11.7-14.34-15.16-23.28-3.47-8.93-5.2-18.57-5.2-28.92v-15.61h16.4v15.61c0,7.46,1.44,14.59,4.32,21.38Zm68.86,70.66h-19.66V.18h19.66v116.47Z" fill="black"/>
  <path d="m356.06,78.25c-3.56,11.43-8.7,21.6-15.43,30.51-6.73,8.9-14.68,15.68-23.85,20.32l-11.73-15.43c8.29-3.94,15.5-9.62,21.64-17.06,6.14-7.43,10.84-15.85,14.11-25.26,3.26-9.4,4.89-19.04,4.89-28.92v-18.25h15.69v18.25c0,12.46-1.78,24.41-5.33,35.84Zm43.86-46.6h-88.34v-15.87h88.34v15.87Zm-29.4,38.26c3.26,8.99,7.96,17.06,14.11,24.2,6.14,7.14,13.36,12.53,21.64,16.18l-11.55,15.52c-9.23-4.41-17.21-10.89-23.94-19.44-6.73-8.55-11.84-18.34-15.34-29.36-3.5-11.02-5.25-22.56-5.25-34.6v-18.25h15.43v18.25c0,9.35,1.63,18.52,4.89,27.51Zm55.76,2.47h-35.71v-15.96h35.71v15.96Zm14.64,87.28h-19.75V0h19.75v159.67Z" fill="black"/>
  <path d="m651.37,94.25h-145.12v-15.52h145.12v15.52Zm-73.35,36.59c-5.11,7.17-12.34,13.14-21.69,17.9s-20.28,8.02-32.8,9.79l-7.14-14.99c10.7-1.23,20-3.67,27.9-7.32,7.9-3.64,13.96-8.01,18.16-13.09,4.2-5.08,6.3-10.56,6.3-16.44v-3.53h16.93v3.53c0,8.94-2.56,16.99-7.67,24.16Zm-33.68-111.18h68.77V4.5h19.48v59.51h-107.56V4.5h19.31v15.16Zm68.77,29.09v-14.19h-68.77v14.19h68.77Zm-24.69,34.03h-19.31v-25.13h19.31v25.13Zm6.39,40.34c4.2,5.08,10.29,9.45,18.25,13.09,7.96,3.65,17.32,6.08,28.08,7.32l-6.97,14.99c-12.64-1.76-23.64-5.01-33.02-9.74-9.38-4.73-16.61-10.7-21.69-17.9-5.08-7.2-7.63-15.27-7.63-24.2v-3.53h16.66v3.53c0,5.88,2.1,11.36,6.3,16.44Z" fill="black"/>
</svg>
